<?xml version="1.0" encoding="UTF-8" standalone="no"?>
<!-- Created with Inkscape (http://www.inkscape.org/) -->

<svg
   xmlns:svg="http://www.w3.org/2000/svg"
   xmlns="http://www.w3.org/2000/svg"
   version="1.0"
   width="269.78976"
   height="390"
   viewBox="0 0 920.8824 599.04"
   id="svg2527"
   xml:space="preserve"
   style="fill-rule:evenodd;stroke-linecap:round;stroke-linejoin:round">
<defs
   id="defs2529">
<clipPath
   id="clipId0">
<path
   d="M 0,768 1024,768 1024,0 0,0 0,768 z"
   id="path2532" />
</clipPath>













































</defs>
<g
   transform="translate(-52.491642,47.573781)"
   clip-path="url(#clipId0)"
   id="g2534"
   style="fill:none;stroke:#000000;stroke-width:0.30000001" />

<polyline
   style="stroke:#000000;stroke-width:0.56241578;stroke-miterlimit:4;stroke-dasharray:none"
   id="polyline2602"
   points="464.25,419.18 466.54,418.051 "
   transform="matrix(4.4310617,0,0,5.7899539,-1497.2039,-1593.5601)" /><rect
   width="251.45827"
   height="30.995745"
   x="666.50439"
   y="731.8219"
   id="rect3491"
   style="fill:#ffb380;fill-opacity:1;fill-rule:evenodd;stroke:#646464;stroke-width:0.85418403;stroke-linecap:round;stroke-linejoin:miter;stroke-miterlimit:4;stroke-opacity:1;stroke-dasharray:none;stroke-dashoffset:0" /><rect
   width="250.8392"
   height="31.502459"
   x="3.0188403"
   y="733.04254"
   id="rect3493"
   style="fill:#ffb380;fill-opacity:1;fill-rule:evenodd;stroke:#646464;stroke-width:0.8686735;stroke-linecap:round;stroke-linejoin:miter;stroke-miterlimit:4;stroke-opacity:1;stroke-dasharray:none;stroke-dashoffset:0" /><rect
   width="918.29858"
   height="1091.4343"
   x="2.583858"
   y="-357.89923"
   id="rect3467"
   style="fill:#f4e3d7;fill-opacity:1;fill-rule:evenodd;stroke:#646464;stroke-width:0;stroke-linecap:round;stroke-linejoin:miter;stroke-miterlimit:4;stroke-opacity:1;stroke-dasharray:none;stroke-dashoffset:0" /><rect
   width="407.89084"
   height="959.47205"
   x="256.31305"
   y="-195.38306"
   id="rect3469"
   style="fill:#ffccaa;fill-opacity:1;fill-rule:evenodd;stroke:#646464;stroke-width:0.87172526;stroke-linecap:round;stroke-linejoin:miter;stroke-miterlimit:4;stroke-opacity:1;stroke-dasharray:none;stroke-dashoffset:0" /><rect
   width="368.54175"
   height="941.85199"
   ry="0.60339779"
   x="275.92603"
   y="-177.90109"
   id="rect3471"
   style="fill:#502d16;fill-opacity:1;fill-rule:evenodd;stroke:#646464;stroke-width:0;stroke-linecap:round;stroke-linejoin:miter;stroke-miterlimit:4;stroke-opacity:1;stroke-dasharray:none;stroke-dashoffset:0" /><polyline
   style="stroke:#000000;stroke-width:0.70301968;stroke-miterlimit:4;stroke-dasharray:none"
   id="polyline2556"
   points="481.807,405.097 481.807,211.158 "
   transform="matrix(4.8552457,0,0,4.8552457,-1694.9371,-1201.7968)" /><path
   d="m 276.2937,-177.79324 38.87253,0.81967 255.08645,65.55932 -0.75511,938.17333 -10.2936,6.0166 -284.07296,-74.33364 1.16269,-936.23528 z"
   id="path3489"
   style="fill:#ff9955;fill-rule:evenodd;stroke:#000000;stroke-width:0;stroke-linecap:butt;stroke-linejoin:miter;stroke-miterlimit:4;stroke-opacity:1;stroke-dasharray:none" /><polyline
   style="stroke:#000000;stroke-width:0.56241578;stroke-miterlimit:4;stroke-dasharray:none"
   id="polyline2562"
   points="405.699,405.097 405.699,211.158 "
   transform="matrix(4.8552457,0,0,4.8552457,-1694.9371,-1201.7968)" /><polyline
   style="stroke:#000000;stroke-width:0.31880236;stroke-miterlimit:4;stroke-dasharray:none"
   id="polyline2564"
   points="466.54,211.158 481.807,211.158 "
   transform="matrix(23.963371,0,0,4.8552457,-10902.544,-1201.7968)" /><polyline
   style="stroke:#000000;stroke-width:0.56241578;stroke-miterlimit:4;stroke-dasharray:none"
   id="polyline2568"
   points="485.934,398.678 538.037,398.678 "
   transform="matrix(4.8552457,0,0,4.8552457,-1694.9371,-1201.7968)" /><polyline
   style="stroke:#000000;stroke-width:0.75533479;stroke-miterlimit:4;stroke-dasharray:none"
   id="polyline2572"
   points="464.25,419.18 464.25,196.158 "
   transform="matrix(4.8552457,0,0,4.2059799,-1694.9371,-929.45223)" /><polyline
   style="stroke:#000000;stroke-width:0.56241578;stroke-miterlimit:4;stroke-dasharray:none"
   id="polyline2574"
   points="405.699,404.18 464.25,419.18 "
   transform="matrix(4.8552457,0,0,4.8552457,-1694.9371,-1201.7968)" /><polyline
   style="stroke:#b80000;stroke-width:0.75;stroke-opacity:1"
   id="polyline2580"
   points="405.011,380.339 405.011,373.92 406.387,373.92 406.387,380.339 405.011,380.339 "
   transform="matrix(4.8552457,0,0,4.8552457,-1694.9371,-1201.7968)" /><polyline
   style="stroke:#b80000;stroke-width:0.75;stroke-opacity:1"
   id="polyline2582"
   points="405.011,235.916 405.011,242.335 406.387,242.335 406.387,235.916 405.011,235.916 "
   transform="matrix(4.8552457,0,0,4.8552457,-1694.9371,-1201.7968)" /><polyline
   style="stroke:#000000;stroke-width:0.75"
   id="polyline2588"
   points="458.156,323.403 458.156,324.22 "
   transform="matrix(4.8552457,0,0,4.8552457,-1694.9371,-1201.7968)" /><path
   d="m 510.99034,374.59473 c 2.09115,6.90712 8.92782,11.23893 16.06649,10.1799 7.13862,-1.05903 12.42321,-7.18907 12.41909,-14.40581 -0.004,-7.21678 -5.29586,-13.34071 -12.43574,-14.39153 -7.13984,-1.05077 -13.97151,3.2889 -16.0547,10.19845"
   id="path2592"
   style="stroke:#858787;stroke-width:3.64143419;stroke-opacity:1" /><polyline
   style="stroke:#000000;stroke-width:0.75197232;stroke-miterlimit:4;stroke-dasharray:none"
   id="polyline2606"
   points="466.54,197.286 466.54,418.051 "
   transform="matrix(4.8552457,0,0,4.2436789,-1694.9371,-947.34313)" /><polyline
   style="stroke:#000000;stroke-width:0.56241578;stroke-miterlimit:4;stroke-dasharray:none"
   id="polyline2610"
   points="401.573,398.678 349.469,398.678 "
   transform="matrix(4.8552457,0,0,4.8552457,-1694.9371,-1201.7968)" /><polyline
   style="fill:#f4e3d7;stroke:#000000;stroke-width:0.70301968;stroke-miterlimit:4;stroke-dasharray:none"
   id="polyline2554"
   points="485.934,405.097 485.934,207.032 "
   transform="matrix(4.8552457,0,0,4.8552457,-1694.9371,-1201.7968)" /><polyline
   style="fill:#f4e3d7;stroke:#000000;stroke-width:0.70301968;stroke-miterlimit:4;stroke-dasharray:none"
   id="polyline2560"
   points="401.573,405.097 401.573,207.032 "
   transform="matrix(4.8552457,0,0,4.8552457,-1694.9371,-1201.7968)" /><polyline
   style="fill:#f4e3d7;stroke:#000000;stroke-width:0.22159113;stroke-miterlimit:4;stroke-dasharray:none"
   id="polyline2566"
   points="401.573,207.032 421.806,207.032 "
   transform="matrix(15.595494,0,0,15.403745,-6007.3695,-3385.6737)" /><polyline
   style="fill:#f4e3d7;stroke:#000000;stroke-width:0.75"
   id="polyline2570"
   points="480.432,405.097 538.037,405.097 "
   transform="matrix(4.7415044,0,0,4.8552457,-1633.6974,-1201.7968)" /><polyline
   style="fill:#f4e3d7;stroke:#000000;stroke-width:0.70301968;stroke-miterlimit:4;stroke-dasharray:none"
   id="polyline2578"
   points="466.54,207.032 485.934,207.032 "
   transform="matrix(4.8552457,0,0,4.8552457,-1694.9371,-1201.7968)" /><polyline
   style="fill:#f4e3d7;stroke:#000000;stroke-width:0.75"
   id="polyline2608"
   points="538.037,174.093 538.037,405.097 "
   transform="matrix(4.8552457,0,0,4.8552457,-1694.9371,-1201.7968)" /><polyline
   style="fill:#f4e3d7;stroke:#000000;stroke-width:0.75"
   id="polyline2612"
   points="405.699,405.097 349.469,405.097 "
   transform="matrix(4.8552457,0,0,4.8552457,-1694.9371,-1201.7968)" /><polyline
   style="fill:#f4e3d7;stroke:#000000;stroke-width:0.75"
   id="polyline2614"
   points="538.037,174.093 349.469,174.093 "
   transform="matrix(4.8552457,0,0,4.8552457,-1694.9371,-1201.7968)" /><polyline
   style="fill:#f4e3d7;stroke:#000000;stroke-width:0.75"
   id="polyline2616"
   points="349.469,405.097 349.469,174.093 "
   transform="matrix(4.8552457,0,0,4.8552457,-1694.9371,-1201.7968)" />


<path
   d="m 386.17459,1115.447 a 0,32.583481 0 1 1 0,0 0,32.583481 0 1 1 0,0 z"
   transform="translate(-52.491642,47.573781)"
   id="path2561"
   style="fill:#aa0000;fill-opacity:1;fill-rule:evenodd;stroke:#b80000;stroke-width:0;stroke-linecap:round;stroke-linejoin:miter;stroke-miterlimit:4;stroke-opacity:1;stroke-dasharray:none;stroke-dashoffset:0" /><polyline
   style="fill-rule:evenodd;stroke:#000000;stroke-width:0.56241578;stroke-linecap:round;stroke-linejoin:round;stroke-miterlimit:4;stroke-dasharray:none"
   id="polyline2574-1"
   points="405.699,404.18 464.25,419.18 "
   transform="matrix(4.8552458,0,0,4.8552458,-1694.7107,-2139.3743)" /><polyline
   style="fill-rule:evenodd;stroke:#000000;stroke-width:0.56241578;stroke-linecap:round;stroke-linejoin:round;stroke-miterlimit:4;stroke-dasharray:none"
   id="polyline2602-7"
   points="464.25,419.18 466.54,418.051 "
   transform="matrix(4.4310617,0,0,5.789954,-1496.8723,-2531.4975)" /><polyline
   style="fill-rule:evenodd;stroke:#000000;stroke-width:0.56241578;stroke-linecap:round;stroke-linejoin:round;stroke-miterlimit:4;stroke-dasharray:none"
   id="polyline2574-1-4"
   points="405.699,404.18 464.25,419.18 "
   transform="matrix(4.3718377,0,0,4.333644,-1459.1963,-1928.0743)" /><rect
   width="73.312828"
   height="11.917106"
   ry="2.0595977"
   x="529.95679"
   y="222.17451"
   transform="matrix(0.96847752,0.24910097,-0.24910097,0.96847752,0,0)"
   id="rect3757"
   style="fill:#ffccaa;fill-opacity:1;stroke:#858787;stroke-width:3.41333342;stroke-linejoin:round;stroke-miterlimit:4;stroke-opacity:1;stroke-dasharray:none" /></svg>