<?xml version="1.0" encoding="UTF-8"?>
<!-- Generator: Adobe Illustrator 13.0.0, SVG Export Plug-In . SVG Version: 6.00 Build 14948)  -->
<!DOCTYPE svg PUBLIC "-//W3C//DTD SVG 1.1//EN" "http://www.w3.org/Graphics/SVG/1.1/DTD/svg11.dtd">
<svg version="1.1" id="Layer_1" xmlns="http://www.w3.org/2000/svg" xmlns:xlink="http://www.w3.org/1999/xlink" x="0px" y="0px" width="280px" height="103px" viewBox="0 0 280 103" enable-background="new 0 0 280 103" xml:space="preserve">
<linearGradient id="SVGID_1_" gradientUnits="userSpaceOnUse" x1="426.751" y1="732.71" x2="416.7337" y2="714.0413" gradientTransform="matrix(1, 0, 0, 1, -408, -677.5)">
	<stop offset="0" style="stop-color:#0070B6"/>
	<stop offset="1" style="stop-color:#1D2C5E"/>
</linearGradient>
<polygon fill="url(#SVGID_1_)" points="17.477,58.544 22.278,53.965 9.189,34.446 5.451,38.243 "/>
<polygon fill="#0071B9" points="183.544,24.964 189.296,23.108 188.579,19.83 184.009,22.288 "/>
<linearGradient id="SVGID_2_" gradientUnits="userSpaceOnUse" x1="548.9268" y1="694.5732" x2="561.642" y2="680.9492" gradientTransform="matrix(1, 0, 0, 1, -408, -677.5)">
	<stop offset="0" style="stop-color:#0070B6"/>
	<stop offset="1" style="stop-color:#1D2C5E"/>
</linearGradient>
<polygon fill="url(#SVGID_2_)" points="131.987,25.236 137.373,23.687 154.994,1.686 150.495,4.012 "/>
<polygon fill="#1D2C5E" points="249.507,33.031 254.05,30.61 252.752,41.986 "/>
<polygon fill="#1D2C5E" points="225.309,41.153 230.463,38.651 225.99,36.982 221.271,40.326 "/>
<linearGradient id="SVGID_3_" gradientUnits="userSpaceOnUse" x1="493.4531" y1="717.2861" x2="491.9368" y2="704.5477" gradientTransform="matrix(1, 0, 0, 1, -408, -677.5)">
	<stop offset="0" style="stop-color:#0070B6"/>
	<stop offset="1" style="stop-color:#1D2C5E"/>
</linearGradient>
<polygon fill="url(#SVGID_3_)" points="82.695,41.43 88.331,39.153 86.644,25.782 82.049,28.247 "/>
<linearGradient id="SVGID_4_" gradientUnits="userSpaceOnUse" x1="632.3477" y1="714.834" x2="631.7422" y2="703.336" gradientTransform="matrix(1, 0, 0, 1, -408, -677.5)">
	<stop offset="0" style="stop-color:#125D9E"/>
	<stop offset="1" style="stop-color:#1D2C5E"/>
</linearGradient>
<polygon fill="url(#SVGID_4_)" points="221.271,40.326 225.837,37.986 227.27,31.42 225.641,24.313 221.105,26.761 "/>
<polygon fill="#312370" points="220.023,85.561 228.008,83.986 229.572,38.798 225.018,41.191 "/>
<polygon fill="#21386E" points="239.788,84.52 224.553,83.182 220.023,85.561 234.796,87.688 234.938,93.705 250.266,98.59   254.828,96.172 "/>
<polygon fill="#21386E" points="184.368,66.189 162.57,69.925 158.318,73.966 177.934,77.105 181.701,75.076 184.102,79.512   187.652,77.561 188.359,83.409 210.643,87.361 215.096,84.912 "/>
<linearGradient id="SVGID_5_" gradientUnits="userSpaceOnUse" x1="589.9111" y1="698.2607" x2="576.5676" y2="719.4887" gradientTransform="matrix(1, 0, 0, 1, -408, -677.5)">
	<stop offset="0" style="stop-color:#125D9E"/>
	<stop offset="1" style="stop-color:#1D2C5E"/>
</linearGradient>
<polygon fill="url(#SVGID_5_)" points="158.318,73.966 162.832,71.621 170.568,44.11 170.838,22.514 166.377,24.969 "/>
<polygon fill="#1D2C5E" points="140.443,26.786 136.747,22.82 131.987,25.236 135.24,29.081 131.686,30.974 131.985,32.159 "/>
<polygon fill="#21386E" points="108.617,68.957 113.179,65.508 149.479,84.516 144.957,86.958 "/>
<polygon fill="#1D2C5E" points="106.525,30.406 112.344,28.644 116.543,17.516 112.032,19.963 "/>
<linearGradient id="SVGID_6_" gradientUnits="userSpaceOnUse" x1="471.8213" y1="732.3096" x2="480.9193" y2="750.2025" gradientTransform="matrix(1, 0, 0, 1, -408, -677.5)">
	<stop offset="0" style="stop-color:#105FA1"/>
	<stop offset="1" style="stop-color:#1D2C5E"/>
</linearGradient>
<path fill="url(#SVGID_6_)" d="M62.084,63.105l-4.646,3.189c0,0,0.986,5.184,2.257,8.79c1.278,3.619,4.32,6.526,4.32,6.526  c1.954,1.91,4.349,3.3,7.021,4.08c5.139,1.479,10.939,0.515,15.918-2.66c1.302-0.824,3.069-2.143,4.155-3.184  C86.215,82.816,62.084,63.105,62.084,63.105z"/>
<polygon fill="#1D2C5E" points="91.647,37.551 87.224,39.041 82.695,41.43 86.947,40.355 91.187,87.131 108.511,84.568   113.146,82.139 "/>
<linearGradient id="SVGID_7_" gradientUnits="userSpaceOnUse" x1="437.4922" y1="726.2021" x2="448.0217" y2="750.6115" gradientTransform="matrix(1, 0, 0, 1, -408, -677.5)">
	<stop offset="0" style="stop-color:#105FA1"/>
	<stop offset="1" style="stop-color:#1D2C5E"/>
</linearGradient>
<polygon fill="url(#SVGID_7_)" points="26.068,51.615 21.292,54.477 17.477,58.544 22.001,56.602 41.357,100.5 59.746,94.568   64.236,91.55 "/>
<path fill="#1D2C5E" d="M213.832,77.313l0.26,2.155c1.584-0.178,3.248-0.383,4.672-0.89c1.66-0.568,5.266-2.174,6.637-3.357  C224.887,75.408,216.438,77.598,213.832,77.313"/>
<path fill="#1D2C5E" d="M148.773,66.104l0.69,3.47c3.722-0.554,6.917-1.931,10.058-3.819c1.971-1.174,4.135-2.945,4.818-3.417  C163.857,62.646,148.773,66.104,148.773,66.104z"/>
<g>
	<path fill="#FFCB05" d="M46.389,96.338l-1.437-3.193L26.6,52.186l-0.377-0.84l-0.834,0.385l-0.557,0.256l-3.267,1.604   c-0.482-0.808-1.282-2.162-1.838-3.101L12.34,38.006l-1.932-3.259l3.196-2.025c3.023-1.928,6.437-3.709,10.151-5.295   c7.395-3.15,14.943-4.816,21.826-4.816c2.264,0,4.455,0.183,6.513,0.541c3.431,0.391,6.604,1.517,9.225,3.263   c3.906,2.184,6.981,5.572,8.718,9.58c1.426,3.294,1.704,7.152,0.798,11.154L70.303,49.5l1.953-1.416   c1.316-0.955,2.746-1.771,4.25-2.426c2.6-1.099,5.29-1.66,7.985-1.66c2.551,0,4.963,0.505,7.17,1.498l1.423,0.638l-0.143-1.553   l-0.619-6.711l-0.1-1.064l-1.036,0.269l-3.109,0.806l-0.545-11.427l22.774-7.276l-0.184,8.881l1.715,0.44l4.974-9.532   l14.897,13.212l0.621,0.553l0.606-0.57c2.041-1.918,4.46-3.457,7.189-4.574l1.14-0.466l-0.781-0.953l-2.686-3.274L154.9,3.181   l8.957,13.365l-13.711,7.37l-3.045,1.638l3.457,0.073c6.5,0.137,12.256,2.887,16.205,7.742l1.428,1.761l0.92,1.131l-1.528,1.622   l-1.019,1.082l-3.426,3.654l-0.637,0.679l0.689,0.622l3.211,2.891l1.242,1.117l0.266-1.648l1.232-7.627l0.315-1.958l0.01,0.011   l0.324-2l1.839-11.26h16.418h0.77l0.13-0.759l0.321-1.928h14.785l3.582,22.621l0.233,1.465l1.2-0.871   c1.451-1.054,3.054-1.921,4.766-2.576c2.279-0.86,4.625-1.299,6.967-1.299c2.788,0,5.495,0.644,7.836,1.861   c0.062,0.045,0.15,0.103,0.27,0.151l1.111,0.446l0.131-1.192l0.268-2.465l0.088-0.808l-0.795-0.177l-2.998-0.67l-0.146-11.792   l22.857,5.031l1.717,8.485l1.775,0.035l1.771-7.302l19.06,4.635L254.268,95.04l-13.938-4.377l-0.099-5.407l-0.014-0.775   l-0.769-0.108L225.54,82.41l0.787-7.069l0.187-1.682l-1.505,0.771c-0.713,0.363-1.403,0.668-2.055,0.908   c-2.274,0.86-4.603,1.295-6.922,1.295c-0.671,0-1.345-0.037-2.001-0.111l-1.188-0.133l0.186,1.18l0.979,6.217l-20.291-3.579   l-1.063-9.226l-0.342-2.957l-1.367,2.643l-2.336,4.505l-4.301-7.94l-1.293-2.385l-0.408,2.68l-0.937,6.146l-17.784-2.799   l1.379-8.435l0.315-1.934l-1.681,1.005c-2.911,1.745-6.254,3.058-10.217,4.015c-1.385,0.338-2.832,0.572-4.305,0.694l-0.834,0.07   v0.837v15.918l-35.023-17.309l-1.316-0.649l0.001,1.467l0.024,14.804L96.57,83.664l-0.658-7.109l-0.178-1.902l-1.365,1.338   c-2.069,2.025-4.4,3.595-6.927,4.667c-2.585,1.099-5.252,1.655-7.925,1.655c-2.669,0-5.177-0.558-7.455-1.649   c-4.22-2.03-7.264-5.713-8.57-10.36c-0.622-2.183-0.791-4.488-0.502-6.854l0.309-2.52l-1.838,1.75   c-1.296,1.23-2.692,2.405-4.152,3.484l-0.495,0.365l0.156,0.595l5.275,20.248l0.932,3.593l-3.532,1.123l-9.932,3.18L46.389,96.338   L46.389,96.338z M50.847,41.982c-0.512,0-1.041,0.047-1.574,0.143l-0.676,0.13l-0.998,0.192l0.301,0.972l0.196,0.632l2.84,9.293   l0.284,0.893l0.422,1.34l1.05-0.934l0.697-0.621c2.753-2.474,3.718-4.986,3.137-8.154c-0.366-1.901-1.838-2.848-2.684-3.244   C52.958,42.198,51.946,41.982,50.847,41.982L50.847,41.982z M126.982,42.287l-1.775,1.728l-4.675,4.543l-1.018,0.989l1.325,0.512   l5.014,1.935l1.54,0.593l-0.318-1.618c-0.414-2.09-0.522-4.182-0.328-6.217L126.982,42.287L126.982,42.287z M147.398,37.12   c-1.939,0-3.815,0.834-5.148,2.286c-2.022,2.208-2.415,5.465-0.977,8.103l0.381,0.715l0.613,1.143l0.863-0.966l0.555-0.615   l6.858-7.83l0.539-0.62l0.865-0.994l-1.234-0.457l-0.769-0.284C149.137,37.285,148.273,37.12,147.398,37.12L147.398,37.12z"/>
</g>
<path fill="#7D7F68" d="M157.889,48.718c-0.066,0.058-0.127,0.132-0.179,0.208c0.069-0.063,0.136-0.118,0.207-0.176L157.889,48.718z  "/>
<polygon fill="#7D7F68" points="164.837,48.294 165.418,44.702 167.014,46.131 163.802,43.241 167.227,39.587 166.055,40.831   166.089,40.674 165.053,41.767 161.631,45.41 "/>
<polygon fill="#7D7F68" points="167.014,46.131 168.244,38.505 167.227,39.587 163.802,43.241 "/>
<path fill="#7D7F68" d="M121.166,49.208l0.052,0.022L121.166,49.208z"/>
<path fill="#C7A008" d="M140.128,52.38c0.274,0.277,0.021,0.078,0.328,0.288l2.095-1.477c-0.311-0.22-0.619-0.456-0.902-0.72  c-3.04-2.77-2.25-9-0.278-12.41C136.18,42.249,136.45,48.696,140.128,52.38"/>
<path fill="#C7A008" d="M165.418,55.868c-3.46,2.862-7.404,4.728-12.615,5.987c-1.139,0.261-2.255,0.451-3.347,0.547  c-8.271,0.813-15.21-2.985-17.843-9.145c-0.328-0.746-0.581-1.501-0.772-2.307c-1.218-5.188-0.178-9.824,2.385-13.458  c0.254-0.352,0.521-0.689,0.801-1.032c-0.131,0.112-0.265,0.208-0.374,0.313c-0.985,0.877-1.857,1.838-2.598,2.888  c-2.566,3.634-3.606,8.273-2.377,13.453c0.188,0.806,0.437,1.572,0.758,2.301c2.634,6.174,9.575,9.97,17.839,9.163  c1.101-0.106,2.213-0.288,3.353-0.563c5.217-1.259,9.158-3.117,12.618-5.979c0.845-0.695,1.66-1.453,2.451-2.282l-0.073-0.07  C165.545,55.752,165.486,55.811,165.418,55.868"/>
<polygon fill="#C7A008" points="116.37,27.199 115.995,26.853 107.079,39.377 107.129,40.185 "/>
<polygon fill="#C7A008" points="166.089,40.674 166.055,40.831 167.227,39.587 168.244,38.505 167.014,46.131 165.418,44.702   164.837,48.294 161.631,45.41 165.053,41.767 "/>
<polygon fill="#C7A008" points="160.061,15.727 154.146,8.136 152.208,10.843 156.825,17.115 "/>
<path fill="#C7A008" d="M67.236,35.921C52.3,17.726,25.387,27.506,15.714,36.017l0.378,0.653c2.224-1.276,4.569-2.43,7.036-3.465  c9.608-4.104,18.768-5.307,26.112-4.022c2.596,0.298,5.346,1.068,7.739,2.67c3.313,1.855,5.824,4.494,7.292,7.876  c2.605,5.99,0.31,13.955-5.825,20.623C66.141,53.291,71.406,46.535,67.236,35.921z"/>
<path fill="#C7A008" d="M97.708,57.119c-0.07-0.33-0.14-0.665-0.247-0.988c-0.841-3.025-2.648-5.44-5.017-7.047  c-3.834-2.604-9.186-3.139-14.52-0.887c-2.806,1.213-5.246,3.08-7.175,5.31c1.483-1.276,3.178-2.339,5.009-3.131  c5.322-2.259,10.674-1.725,14.521,0.876c2.369,1.609,4.161,4.023,5.02,7.044c0.095,0.324,0.169,0.664,0.243,1.005  c0.228,1.15,0.334,2.313,0.29,3.504c-0.111,3.482-1.402,6.988-3.549,9.982c-0.346,0.474-0.71,0.916-1.087,1.354  c1.222-1.055,2.313-2.222,3.245-3.529c2.156-2.975,3.444-6.488,3.558-9.991C98.047,59.452,97.95,58.27,97.708,57.119"/>
<path fill="#C7A008" d="M83.001,52.678c-0.021,0.033,2.167-2.168,2.142-2.168c-2.737-0.104-3.894,2.477-3.989,2.68  C81.716,52.918,82.336,52.741,83.001,52.678"/>
<path fill="#C7A008" d="M88.156,55.833c0.111,0.371,0.169,0.74,0.169,1.144c0,0.57-0.127,1.117-0.358,1.621  c0.438-0.229,3.603-1.764,2.376-5.016C90.409,53.682,88.077,55.823,88.156,55.833"/>
<path fill="#C7A008" d="M75.706,57.643c0-1.338,2.291-4.584,3.005-5.667c-3.618,2.3-5.176,5.404-5.176,7.849  c0,4.189,3.681,7.558,8.082,7.558c2.082,0,5.895-1.101,8.389-5.137c-1.307,0.86-4.629,2.918-6.372,2.918  C79.234,65.163,75.706,61.855,75.706,57.643"/>
<polygon fill="#C7A008" points="106.735,78.432 109.426,78.586 108.894,59.258 106.678,61.477 "/>
<polygon fill="#C7A008" points="104.985,43.146 107.113,40.164 106.659,23.867 91.232,29.197 91.287,30.703 104.04,26.906 "/>
<polygon fill="#C7A008" points="117.804,24.018 116.37,27.199 126.913,37.104 129.783,35.012 "/>
<path fill="#C7A008" d="M127.962,55.5l-14.064-4.65l-2.049,2.164l14.011,5.607c1.589,2.994,3.997,5.559,7.029,7.434  c2.935,1.795,6.289,2.87,9.841,3.211v6.92l2.172,1.084l0.687-10.396L127.962,55.5z"/>
<path fill="#C7A008" d="M150.546,53.544c3.454-0.833,5.446-2.635,7.161-4.618c-1.287,1.056-7.739,2.462-8.823,2.829l-2.125,2.263  C147.73,54.104,149.354,53.842,150.546,53.544"/>
<path fill="#C7A008" d="M144.264,29.629c-6.369,0.834-9.688,6.181-10.237,6.832c2.352-1.987,5.3-3.462,8.62-4.248  c7.881-1.906,14.83,0.497,19.125,5.807l2.658-2.25C160.176,30.552,152.143,27.729,144.264,29.629"/>
<path fill="#C7A008" d="M165.625,55.684c0.768-0.646,2.133-1.299,2.859-2.06l-8.528-7.62c-0.653,0.781-1.245,2.068-2.042,2.745  L165.625,55.684z"/>
<path fill="#C7A008" d="M209.389,76.104c-8.947-7.354-8.412-23.123-4.02-28.126l-3.942-24.715l-8.622,1.113l-0.384,2.177h6.524  l3.455,22.424c-4.396,5.019-6.52,11.743-5.051,17.899c1.137,4.757,4.059,8.607,8.265,10.834c0.423,0.232,0.86,0.434,1.307,0.625  l0.056,0.329l2.565,0.405C209.542,79.068,209.809,76.318,209.389,76.104z"/>
<polygon fill="#C7A008" points="187.361,44.959 189.543,42.755 187.249,25.99 175.001,26.9 174.63,29.078 184.464,29.078 "/>
<polygon fill="#C7A008" points="188.661,65.932 189.447,68.066 193.988,55.575 191.836,57.73 "/>
<polygon fill="#C7A008" points="180.221,54.747 177.878,69.561 180.122,70.418 182.407,52.564 "/>
<path fill="#C7A008" d="M226.574,47.832c1.287,0.919,2.385,2.082,3.211,3.465c0.652,1.061,1.145,2.249,1.46,3.553  c1.071,4.453-0.21,9.269-3.041,13.133c-0.285,0.392-0.599,0.771-0.899,1.143c1.15-0.989,15.118-11.292,1.471-24.824  c-15.01-4.948-20.692,4.845-21.223,5.466c1.586-1.348,3.416-2.463,5.398-3.221C218.031,44.623,223.029,45.29,226.574,47.832"/>
<path fill="#C7A008" d="M219.007,48.808c0.042,0.095,2.155-2.202,2.198-2.202c-2.671,0.11-3.954,1.399-3.822,1.994  c-0.16,0.231-0.29,0.46-0.392,0.713C217.561,49.029,218.615,48.811,219.007,48.808"/>
<path fill="#C7A008" d="M224.029,52.165c0.096,0.358,0.142,0.733,0.134,1.136c-0.024,0.516-0.158,0.989-0.354,1.43  c0.406-0.183,3.643-1.188,2.407-4.75C226.248,50.082,223.994,52.167,224.029,52.165"/>
<path fill="#C7A008" d="M216.938,63.475c3.021,0.129,6.362-1.727,8.758-5.007c-6.148,1.261-12.611-8.977-11.963-9.979  c-2.323,1.684-4.379,4.932-4.473,7.202C209.1,59.9,212.527,63.299,216.938,63.475"/>
<polygon fill="#C7A008" points="256.495,35.287 256.33,38.379 266.948,40.735 250.629,90.15 252.07,91.114 269.658,38.329 "/>
<polygon fill="#C7A008" points="249.24,60.941 251.421,58.743 246.288,32.927 229.742,29.629 229.857,32.577 243.852,35.388 "/>
<polygon fill="#C7A008" points="236.659,80.54 238.878,81.259 242.703,56.602 240.512,58.748 "/>
<polygon fill="#C7A008" points="52.35,64.803 49.954,66.479 56.021,89.216 58.896,88.536 "/>
<path fill="#C7A008" d="M57.197,52.848c-1.51,1.602-4.857,4.715-6.764,5.943l-1.158-3.718l-2.536-8.152l-1.612-5.519l-1.573,2.019  l1.606,5.527l2.536,8.146l1.153,3.729C51.46,59.141,55.258,55.984,57.197,52.848"/>
<path fill="#7D7F68" d="M149.949,38.815c-2.066-0.795-4.992-0.556-6.572,1.173c-0.367,0.401-1.081,1.424-1.307,1.881  c1.529-1.216,4.252-1.479,6.037-0.835L149.949,38.815z"/>
<path fill="#7D7F68" d="M55.308,46.179c-0.232-1.22-1.427-2.189-2.013-2.458c-1.048-0.506-2.861-0.585-4.185-0.344  c0.238,0.822,0.511,1.786,0.627,2.181c0.537,0.075,1.419,0.235,1.882,0.446c0.581,0.28,1.597,0.94,1.833,2.168  c0.316,1.639,0.233,3.171-0.45,4.415C54.875,50.749,55.784,48.75,55.308,46.179"/>
<g>
	<g>
		<path fill="#3C5AA6" d="M58.588,46.145c-0.899-4.824-7.207-7.483-13.461-4.072l1.612,5.521l2.536,8.159l1.157,3.716    C55.124,56.452,59.84,52.827,58.588,46.145z M52.376,53.563c-0.683-2.229-2.181-7.042-2.181-7.042    c0.007,0.022-0.295-1.03-0.653-2.234c1.326-0.237,2.6-0.141,3.648,0.363c0.586,0.279,1.616,0.93,1.841,2.164    C55.549,49.588,54.614,51.568,52.376,53.563z"/>
	</g>
</g>
<g>
	<g>
		<path fill="#3567B0" d="M153.223,38.491c-3.496-3.207-8.93-2.958-12.119,0.535c-3.208,3.487-2.956,8.924,0.545,12.118    c0.285,0.275,0.593,0.5,0.903,0.721l11.277-12.771C153.63,38.886,153.43,38.679,153.223,38.491z M142.575,47.474    c-1.103-2.025-0.88-4.596,0.769-6.398c1.586-1.728,4.016-2.22,6.088-1.421L142.575,47.474z"/>
	</g>
</g>
<polygon fill="#1E2D5F" points="168.291,37.089 162.046,43.106 167.979,48.434 "/>
<path fill="#3466AF" d="M226.199,49.981c0.095,0.379,0.144,0.754,0.132,1.153c-0.104,2.386-2.347,4.228-5.021,4.103  c-2.672-0.092-4.771-2.12-4.666-4.5c0.09-2.231,2.078-3.997,4.533-4.11c-0.466-0.105-0.953-0.16-1.461-0.178  c-4.473-0.193-8.129,2.975-8.283,6.919c-0.172,4.218,3.209,7.657,7.611,7.848c4.479,0.179,8.133-3,8.311-7.198  C227.407,52.563,226.977,51.168,226.199,49.981"/>
<linearGradient id="SVGID_8_" gradientUnits="userSpaceOnUse" x1="639.7061" y1="-982.7695" x2="655.6348" y2="-982.7695" gradientTransform="matrix(1, 0, 0, -1, -564, -925)">
	<stop offset="0" style="stop-color:#3C5AA6"/>
	<stop offset="0.9331" style="stop-color:#2B73B9"/>
	<stop offset="1" style="stop-color:#2A75BB"/>
</linearGradient>
<path fill="url(#SVGID_8_)" d="M90.504,54.798c0,2.396-2.179,4.316-4.848,4.316c-2.676,0-4.847-1.921-4.847-4.316  c0-2.233,1.91-4.074,4.358-4.288c-0.469-0.085-0.957-0.134-1.461-0.134c-4.472,0-8,3.317-8,7.267c0,4.215,3.529,7.521,7.928,7.521  c4.476,0,8.001-3.308,8.001-7.521c0-1.459-0.482-2.834-1.311-3.966C90.436,54.018,90.504,54.396,90.504,54.798"/>
<g>
	<g>
		
			<linearGradient id="SVGID_9_" gradientUnits="userSpaceOnUse" x1="573.1777" y1="-974.5703" x2="838.9209" y2="-974.5703" gradientTransform="matrix(1, 0, 0, -1, -564, -925)">
			<stop offset="0" style="stop-color:#3C5AA6"/>
			<stop offset="0.9331" style="stop-color:#2B73B9"/>
			<stop offset="1" style="stop-color:#2A75BB"/>
		</linearGradient>
		<path fill="url(#SVGID_9_)" d="M254.02,30.598l-1.986,8.185l-1.834-9.063l-24.559-5.406l0.172,13.656l3.701,0.83l-0.267,2.463    c-0.048-0.019-0.078-0.048-0.104-0.069c-4.588-2.421-10.276-2.669-15.629-0.647c-1.796,0.687-3.463,1.59-4.975,2.688    l-3.705-23.388h-16.333l-0.45,2.689h-17.191l-1.963,12.023l-1.426-1.761c-4.166-5.118-10.205-7.937-16.895-8.077l14.596-7.845    L154.994,1.687l-18.389,21.189l3.174,3.87c-2.875,1.175-5.387,2.795-7.468,4.752l-15.767-13.989l-5.513,10.566l0.212-10.154    l-24.651,7.875l0.632,13.244l4.194-1.088l0.62,6.712c-4.792-2.152-10.552-2.099-15.894,0.158c-1.583,0.69-3.059,1.538-4.419,2.524    c0.924-4.089,0.705-8.12-0.853-11.715c-1.84-4.248-5.078-7.759-9.048-9.974c-2.783-1.854-6.1-3.009-9.571-3.402    c-8.53-1.491-18.773,0.04-28.854,4.335c-3.706,1.581-7.163,3.375-10.281,5.361L9.177,34.45l2.38,4.019l7.386,12.483    c0,0,2.26,3.825,2.275,3.823l3.994-1.963l0.557-0.256l18.353,40.961l1.77,3.937l4.098-1.32l9.93-3.181l4.352-1.383l-1.148-4.43    L57.85,66.895c1.517-1.123,2.933-2.314,4.24-3.561c-0.295,2.419-0.14,4.868,0.526,7.212c1.379,4.908,4.593,8.785,9.053,10.933    c4.817,2.315,10.694,2.321,16.131,0.015c2.727-1.157,5.152-2.845,7.207-4.854l0.749,8.063l17.39-2.561l-0.027-15.593    l36.337,17.959V67.119c1.458-0.122,2.946-0.352,4.442-0.719c4.002-0.967,7.427-2.293,10.47-4.116l-1.526,9.339l19.592,3.083    l1.075-7.05l5.117,9.453l3.128-6.027l1.143,9.896l22.213,3.916l-1.178-7.473c3.041,0.344,6.246-0.064,9.342-1.232    c0.733-0.271,1.457-0.601,2.15-0.955l-0.885,7.951l14.784,2.086l0.11,6.063l15.416,4.839l20.071-60.495L254.02,30.598z     M167.227,39.588l1.019-1.083l-1.231,7.627l-3.211-2.892L167.227,39.588z M154.209,8.432l5.382,7.311l-15.387,7.628l-1.063-1.615    L154.209,8.432z M52.32,64.809l6.139,23.555l-9.936,3.174L28.134,46.004c-1.109,0.583-3.157,1.561-5.038,2.483l-7.383-12.472    c2.936-1.875,6.156-3.537,9.581-4.984c9.612-4.088,18.783-5.308,26.118-4.012c2.595,0.292,5.342,1.057,7.748,2.654    c3.301,1.859,5.826,4.505,7.282,7.875C69.993,45.754,64.061,57.563,52.32,64.809z M98.001,60.617    c-0.114,3.507-1.402,7.021-3.558,9.994c-2.051,2.875-4.916,5.248-8.287,6.699c-8.62,3.652-17.24,0-19.543-8.184    c-2.231-7.913,2.96-17.333,11.312-20.931c5.334-2.252,10.686-1.718,14.52,0.887c2.368,1.606,4.174,4.021,5.017,7.047    c0.106,0.321,0.176,0.658,0.247,0.988C97.95,58.27,98.047,59.452,98.001,60.617z M144.902,77.27l-36.055-18.033l0.064,18.894    l-9.327,1.272l-0.65-7.788c2.88-4.938,3.933-10.757,2.43-16.093c-0.825-2.933-2.349-5.479-4.42-7.519l-1.338-15.879l-4.188,1.086    l-0.185-4.015l14.978-4.46l0.918,15.448l11.034-15.503l10.787,10.273l-15.085,15.892l14.172,5.606    c1.583,3,3.998,5.549,7.028,7.427c2.929,1.808,6.285,2.877,9.835,3.228L144.902,77.27L144.902,77.27z M126.181,51.144    l-5.015-1.935l4.675-4.544C125.641,46.751,125.744,48.932,126.181,51.144z M165.418,55.868c-3.46,2.862-7.404,4.728-12.615,5.987    c-1.139,0.261-2.255,0.451-3.347,0.547c-8.271,0.813-15.21-2.985-17.843-9.145c-0.328-0.746-0.581-1.501-0.772-2.307    c-1.218-5.188-0.178-9.825,2.385-13.458c0.738-1.06,1.614-2.026,2.598-2.896c2.414-2.154,5.496-3.72,9-4.562    c7.879-1.9,14.818,0.505,19.072,5.725l-15.014,15.981c1.018,0.192,2.637-0.075,3.832-0.361c3.576-0.872,5.577-2.77,7.34-4.838    l6,5.398l1.818,1.642C167.084,54.396,166.256,55.165,165.418,55.868z M197.271,77.195l-3.266-21.635l-4.619,11.935l-6.916-14.917    h-0.078l-2.733,17.275l-11.527-2.006l1.621-9.64c0.435-0.409,0.863-0.819,1.284-1.252l3.736-3.847l-3.631-3.252L175,26.899h11.63    l2.911,15.892l3.262-18.417h8.319l3.452,22.438c-4.393,5.004-6.527,11.731-5.059,17.885c1.135,4.771,4.067,8.613,8.27,10.857    c0.423,0.213,0.861,0.424,1.313,0.606l0.44,2.909L197.271,77.195z M225.996,70.146c-1.271,0.905-2.67,1.674-4.174,2.229    c-2.969,1.131-5.922,1.366-8.553,0.843c-1.834-0.362-3.506-1.077-4.961-2.112c-2.314-1.674-4.018-4.146-4.769-7.25    c-0.876-3.729-0.069-7.711,1.937-11.199c1-1.705,2.283-3.307,3.801-4.688c1.693-1.518,3.656-2.761,5.84-3.601    c5.083-1.896,10.096-1.242,13.625,1.295c1.298,0.92,2.375,2.091,3.224,3.452c0.644,1.075,1.144,2.26,1.447,3.554    c1.081,4.478-0.206,9.274-3.031,13.138C229.172,67.454,227.697,68.934,225.996,70.146z M251.951,90.538l-8.524-2.539    l-0.743-31.426l-4.287,24.243l-9.299-1.484l0.666-6.98c6.072-5.131,9.291-13.225,7.527-20.56    c-0.775-3.248-2.445-6.076-4.799-8.226l0.785-8.232l-3.516-0.936l0.235-4.395l16.021,3.22l5.387,25.546l5.525-22.903l12.188,2.693    L251.951,90.538z"/>
	</g>
</g>
<path d="M263.488,86.982h0.435c0.509,0,0.933-0.178,0.933-0.66c0-0.321-0.252-0.66-0.933-0.66c-0.194,0-0.331,0.023-0.435,0.041  V86.982z M263.488,89.085h-0.612v-3.797c0.315-0.056,0.618-0.103,1.073-0.103c0.578,0,0.96,0.127,1.178,0.295  c0.245,0.168,0.359,0.42,0.359,0.785c0,0.502-0.334,0.801-0.739,0.935v0.022c0.334,0.063,0.554,0.362,0.633,0.926  c0.087,0.594,0.185,0.817,0.237,0.935h-0.629c-0.088-0.116-0.178-0.47-0.254-0.968c-0.094-0.482-0.342-0.663-0.826-0.663h-0.416  v1.633H263.488L263.488,89.085z M264.124,84.221c-1.504,0-2.739,1.29-2.739,2.883c0,1.623,1.235,2.893,2.756,2.893  c1.506,0.021,2.728-1.27,2.728-2.878c0-1.606-1.222-2.896-2.728-2.896h-0.017V84.221z M264.143,83.688  c1.854,0,3.349,1.515,3.349,3.414c0,1.933-1.494,3.43-3.364,3.43c-1.872,0-3.389-1.496-3.389-3.43c0-1.899,1.515-3.414,3.389-3.414  H264.143z"/>
</svg>